<?xml version="1.0" encoding="UTF-8" standalone="no"?>
<!DOCTYPE svg PUBLIC "-//W3C//DTD SVG 1.1//EN" "http://www.w3.org/Graphics/SVG/1.1/DTD/svg11.dtd">
<svg width="100%" height="100%" viewBox="0 0 2771 959" version="1.1" xmlns="http://www.w3.org/2000/svg" xmlns:xlink="http://www.w3.org/1999/xlink" xml:space="preserve" xmlns:serif="http://www.serif.com/" style="fill-rule:evenodd;clip-rule:evenodd;stroke-linecap:round;stroke-linejoin:round;stroke-miterlimit:1.5;">
    <g transform="matrix(1,0,0,1,-375,-1060)">
        <g transform="matrix(1,0,0,1,-60,-300)">
            <path d="M1518.431,2290.849L1448.913,2292.655L1485,2261L1518.431,2290.849Z"/>
        </g>
        <g transform="matrix(1,0,0,1,-60,-300)">
            <path d="M1399.679,2293.934L435,2319L659,2186L719,2142L812,2127L1051,2141L1074,2071L1203,2072L1235,2022L1262,1990L1263,1923L1316,1880C1316,1880 1337.467,1688.077 1436.204,1685.021L1436.786,1614L1444.545,1614L1446.364,1685.14C1503.966,1688.077 1542.061,1729.02 1562.83,1765.604L1958.374,1757.524L1965,1558L1977,1557L1976,1592L2002,1590L2017,1464L2047.221,1442.528L2048.571,1360L2064.089,1360L2068.37,1443.685L2083,1451L2084,1584L2108,1581L2108,1548L2119,1548L2155,1911C2155,1911 2425.24,1891.76 2523,1920C2620.76,1948.24 2918,2163 2918,2163L3206,2247L2309.172,2270.303L2309.172,2201.559L2314.816,2201.559L2314.816,2118.785L2316.697,2118.785L2316.697,2115.023L2307.291,2115.023L2307.291,2103.736L2285.537,2064.51L2284.936,2032.343L2258.379,1957L2232.042,2032.249L2232.042,2064.23L2211.349,2101.854L2211.349,2115.023L2201.943,2115.023L2201.943,2120.667L2203.824,2120.667L2203.824,2203.441L2207.586,2203.441L2207.586,2272.942L2188.622,2273.435L2185.991,2186.202L2128.207,2172.118L2074.645,2165.038L2035.666,2170.962L2014.029,2168.001L1993.393,2171.085L1989.522,2145.595L1987.374,2119.685L1969.318,2116.662L1963.856,2112.787L1954.271,2074.333L1933.206,2074.333L1893.359,2093.07L1867,2128.756L1867,2189.225L1870.009,2189.225L1870.009,2281.714L1800.05,2283.531L1798.198,2216.857L1782.437,2203.722L1792.944,2182.706L1806.079,2080.254L1779.81,2075L1758.794,2090.762L1750.913,2111.778L1743.032,2124.913L1701,2151.183L1701,2156.437L1716.762,2161.69L1714.135,2174.825L1711.508,2208.976L1743.032,2219.484L1743.032,2240.5L1727.408,2285.419L1566.996,2289.587L1542,2245L1542,2227L1533,2227L1511,2161L1515,2154L1509,2150L1492,1958L1494,1955L1494,1950L1496,1950L1496,1944L1494,1944L1494,1941L1493,1937L1486,1932L1486,1917L1485,1917L1485,1900L1484,1900L1484,1917L1483,1917L1483,1932L1477,1937L1475,1941L1475,1944L1473,1944L1473,1949L1475,1949L1475,1955L1477,1958L1460,2150L1455,2154L1458,2163L1435,2227L1428,2227L1428,2244L1399.679,2293.934Z"/>
        </g>
        <g transform="matrix(1.881226,0,0,1.881226,-1977.942529,-2965.172414)">
            <g transform="matrix(1,0,0,1,303,-144)">
                <path d="M1890,2768.945L1944,2767.542L1944,2731L1947,2731L1947,2687L1948,2687L1948,2685L1943,2685L1943,2679L1931.436,2658.149L1931.117,2641.05L1917,2601L1903,2641L1903,2658L1892,2678L1892,2685L1887,2685L1887,2688L1888,2688L1888,2732L1890,2732L1890,2768.945ZM1917.5,2692C1926.331,2692 1933.5,2699.169 1933.5,2708C1933.5,2716.831 1926.331,2724 1917.5,2724C1908.669,2724 1901.5,2716.831 1901.5,2708C1901.5,2699.169 1908.669,2692 1917.5,2692Z" style="fill:white;fill-opacity:0;"/>
            </g>
            <g transform="matrix(1,0,0,1,123.5,-136)">
                <circle cx="2097" cy="2700" r="16"/>
            </g>
        </g>
        <g>
            <g transform="matrix(3.009346,0,0,3.023474,-3510.514019,-6845.591549)">
                <path d="M1873.874,2916.852L1768,2919.59L1768,2889L1767,2889L1767,2869L1775.759,2857.197L1789,2851L1796,2851L1799.185,2863.718L1801,2865L1807,2866L1807.714,2874.57L1809,2883L1815.858,2881.98L1823.047,2882.959L1836,2881L1853.799,2883.342L1873,2888L1873.874,2916.852ZM1779.868,2902.629L1779.868,2913.629L1783.868,2913.629L1787.868,2911.629L1787.868,2901.629L1784.868,2900.629L1782.222,2900.217L1779.868,2902.629ZM1768.868,2885.629L1768.868,2896.629L1772.868,2896.629L1776.868,2894.629L1776.868,2884.629L1773.868,2883.629L1771.222,2883.217L1768.868,2885.629ZM1865.749,2888.282L1865.749,2899.282L1861.749,2899.282L1857.749,2897.282L1857.749,2887.282L1860.749,2886.282L1863.395,2885.87L1865.749,2888.282ZM1779.868,2881.629L1779.868,2892.629L1783.868,2892.629L1787.868,2890.629L1787.868,2880.629L1784.868,2879.629L1782.222,2879.217L1779.868,2881.629ZM1854.749,2901.282L1854.749,2912.282L1850.749,2912.282L1846.749,2910.282L1846.749,2900.282L1849.749,2899.282L1852.395,2898.87L1854.749,2901.282ZM1865.749,2904.282L1865.749,2915.282L1861.749,2915.282L1857.749,2913.282L1857.749,2903.282L1860.749,2902.282L1863.395,2901.87L1865.749,2904.282ZM1768.868,2904.629L1768.868,2915.629L1772.868,2915.629L1776.868,2913.629L1776.868,2903.629L1773.868,2902.629L1771.222,2902.217L1768.868,2904.629Z" style="fill:white;fill-opacity:0;stroke:black;stroke-opacity:0;stroke-width:0.33px;"/>
            </g>
            <g transform="matrix(3.009346,0,0,3.023474,-3519.514019,-6851.591549)">
                <path d="M1857.74,2903.267L1857.74,2914.267L1853.74,2914.267L1849.74,2912.267L1849.74,2902.267L1852.74,2901.267L1855.386,2900.854L1857.74,2903.267Z" style="stroke:black;stroke-width:0.33px;"/>
            </g>
            <g transform="matrix(3.009346,0,0,3.023474,-3519.514019,-6851.591549)">
                <path d="M1868.74,2906.267L1868.74,2917.267L1864.74,2917.267L1860.74,2915.267L1860.74,2905.267L1863.74,2904.267L1866.386,2903.854L1868.74,2906.267Z" style="stroke:black;stroke-width:0.33px;"/>
            </g>
            <g transform="matrix(3.009346,0,0,3.023474,-3519.514019,-6851.591549)">
                <path d="M1771.859,2906.614L1771.859,2917.614L1775.859,2917.614L1779.859,2915.614L1779.859,2905.614L1776.859,2904.614L1774.213,2904.201L1771.859,2906.614Z" style="stroke:black;stroke-width:0.33px;"/>
            </g>
            <g transform="matrix(3.009346,0,0,3.023474,-3519.514019,-6851.591549)">
                <path d="M1782.859,2904.614L1782.859,2915.614L1786.859,2915.614L1790.859,2913.614L1790.859,2903.614L1787.859,2902.614L1785.213,2902.201L1782.859,2904.614Z" style="stroke:black;stroke-width:0.33px;"/>
            </g>
            <g transform="matrix(3.009346,0,0,3.023474,-3519.514019,-6851.591549)">
                <path d="M1771.859,2887.614L1771.859,2898.614L1775.859,2898.614L1779.859,2896.614L1779.859,2886.614L1776.859,2885.614L1774.213,2885.201L1771.859,2887.614Z" style="stroke:black;stroke-width:0.33px;"/>
            </g>
            <g transform="matrix(3.009346,0,0,3.023474,-3519.514019,-6851.591549)">
                <path d="M1868.74,2890.267L1868.74,2901.267L1864.74,2901.267L1860.74,2899.267L1860.74,2889.267L1863.74,2888.267L1866.386,2887.854L1868.74,2890.267Z" style="stroke:black;stroke-width:0.33px;"/>
            </g>
            <g transform="matrix(3.009346,0,0,3.023474,-3519.514019,-6851.591549)">
                <path d="M1782.859,2883.614L1782.859,2894.614L1786.859,2894.614L1790.859,2892.614L1790.859,2882.614L1787.859,2881.614L1785.213,2881.201L1782.859,2883.614Z" style="stroke:black;stroke-width:0.33px;"/>
            </g>
        </g>
        <g transform="matrix(2.626984,0,0,2.626984,-2835.380952,-5556.912698)">
            <path d="M1714.053,2871.099L1741.705,2870.381L1741,2845L1735,2840L1739,2832L1744,2793L1734,2791L1726,2797L1723,2805L1720,2810L1704,2820L1704,2822L1710,2824L1709,2829L1708,2842L1720,2846L1720,2854L1714.053,2871.099Z" style="fill:white;fill-opacity:0;"/>
        </g>
        <g transform="matrix(1,0,0,1,-120,-621)">
            <path d="M1626.996,2610.587L1578.431,2611.849L1545,2582L1508.913,2613.655L1459.679,2614.934L1488,2565L1488,2548L1495,2548L1518,2484L1515,2475L1520,2471L1537,2279L1535,2276L1535,2270L1533,2270L1533,2265L1535,2265L1535,2262L1537,2258L1543,2253L1543,2238L1544,2238L1544,2221L1545,2221L1545,2238L1546,2238L1546,2253L1553,2258L1554,2262L1554,2265L1556,2265L1556,2271L1554,2271L1554,2276L1552,2279L1569,2471L1575,2475L1571,2482L1593,2548L1602,2548L1602,2566L1626.996,2610.587Z" style="fill:white;fill-opacity:0;"/>
        </g>
    </g>
</svg>
